<?xml version="1.0" standalone="no"?>
<!DOCTYPE svg PUBLIC "-//W3C//DTD SVG 20010904//EN"
 "http://www.w3.org/TR/2001/REC-SVG-20010904/DTD/svg10.dtd">
<svg version="1.0" xmlns="http://www.w3.org/2000/svg"
 width="116.000000pt" height="116.000000pt" viewBox="0 0 116.000000 116.000000"
 preserveAspectRatio="xMidYMid meet">
<metadata>
Created by potrace 1.11, written by Peter Selinger 2001-2013
</metadata>
<g transform="translate(0.000000,116.000000) scale(0.100000,-0.100000)"
fill="#000000" stroke="none">
<path d="M459 1076 c-2 -3 -16 -7 -29 -10 -75 -14 -158 -58 -230 -122 -39 -35
-94 -113 -86 -121 8 -9 842 -7 855 1 8 5 2 20 -18 44 -80 101 -145 149 -255
189 -38 14 -227 29 -237 19z"/>
<path d="M42 711 l3 -76 95 -1 c87 0 141 12 160 35 5 6 15 12 89 53 20 11 43
26 52 34 9 8 18 12 20 10 2 -2 9 2 16 9 10 11 -28 13 -213 12 l-225 0 3 -76z"/>
<path d="M610 785 c0 -2 52 -36 116 -76 l115 -73 100 -1 c54 0 100 2 100 5 4
15 5 127 1 137 -3 10 -57 12 -218 12 -118 -1 -214 -2 -214 -4z"/>
<path d="M485 748 c-27 -17 -68 -43 -90 -57 -22 -14 -44 -24 -48 -23 -4 1 -10
-5 -13 -13 -3 -8 -11 -12 -18 -8 -6 3 -7 2 -3 -3 9 -10 457 -13 457 -3 0 3
-21 19 -47 36 -136 86 -164 103 -176 103 -6 0 -34 -14 -62 -32z"/>
<path d="M43 597 c-6 -9 -5 -10 21 -24 19 -10 18 -11 -2 -29 -21 -18 -22 -27
-22 -186 l0 -168 33 -1 c17 -1 36 -1 42 1 5 1 22 2 37 2 22 1 27 5 23 19 -3 9
-2 20 3 22 9 6 34 -7 33 -17 -3 -19 0 -26 12 -26 9 0 12 46 13 205 0 113 -2
205 -5 206 -32 6 -184 3 -188 -4z m41 -155 c2 -4 1 -14 -4 -22 -7 -11 -12 -12
-21 -3 -6 6 -8 16 -5 22 8 13 23 14 30 3z m52 -134 c1 -9 -4 -15 -12 -14 -20
3 -27 13 -19 26 9 15 28 8 31 -12z"/>
<path d="M277 595 c-9 -8 -11 -67 -10 -201 1 -104 2 -192 2 -196 1 -5 19 -8
41 -8 l40 0 -2 208 -3 207 -28 1 c-16 1 -34 -4 -40 -11z"/>
<path d="M380 399 l0 -207 25 -4 c14 -3 28 -2 31 3 2 4 11 6 20 2 12 -5 14 22
12 203 l-3 208 -42 1 -43 1 0 -207z"/>
<path d="M502 591 c-6 -13 -8 -283 -3 -377 1 -16 9 -23 32 -26 17 -3 36 1 43
8 17 17 19 391 2 402 -20 13 -67 9 -74 -7z"/>
<path d="M619 581 c0 -14 -1 -107 -1 -206 l-1 -180 42 -3 c22 -2 42 0 42 5 4
27 3 403 -1 404 -3 1 -22 2 -42 3 -34 2 -38 0 -39 -23z"/>
<path d="M739 605 c-1 0 -2 -93 -3 -207 l-2 -208 43 0 c24 0 43 3 44 8 6 80 2
402 -6 403 -8 1 -72 5 -76 4z"/>
<path d="M855 602 c-2 -2 -4 -95 -5 -207 l-1 -202 98 1 98 1 1 165 c0 183 -1
196 -22 179 -11 -9 -14 -7 -14 10 0 18 10 25 32 22 3 0 5 7 4 17 -2 14 -16 17
-95 17 -51 0 -94 -1 -96 -3z m175 -172 c0 -11 -7 -20 -15 -20 -15 0 -21 21 -8
33 12 13 23 7 23 -13z m-46 -109 c3 -5 -1 -14 -8 -20 -16 -13 -32 2 -21 19 8
12 22 13 29 1z m-71 -107 c-7 -18 -17 -18 -32 0 -9 11 -9 15 1 19 20 7 37 -3
31 -19z"/>
<path d="M88 162 l-48 -3 0 -55 0 -55 98 3 97 3 0 53 c1 28 -2 52 -5 53 -25 3
-104 3 -142 1z"/>
<path d="M869 158 c-15 -6 -19 -17 -19 -58 l0 -51 98 3 97 3 0 50 0 50 -78 5
c-43 3 -87 2 -98 -2z"/>
<path d="M269 133 c0 -16 -2 -40 -3 -55 l-2 -27 129 -3 c125 -3 128 -3 134 20
6 27 33 29 33 2 0 -18 8 -19 130 -19 96 0 130 3 131 12 4 73 3 87 -9 92 -22 8
-25 6 -14 -8 12 -14 4 -31 -15 -34 -6 -1 -10 8 -9 22 l3 24 -241 0 c-133 1
-236 -2 -231 -6 16 -12 12 -36 -7 -39 -12 -1 -15 4 -12 22 2 13 0 24 -6 24 -5
0 -10 -12 -11 -27z m161 -48 c0 -7 -7 -15 -15 -19 -15 -5 -22 24 -9 37 9 9 24
-2 24 -18z m254 -6 c-8 -14 -34 -11 -34 4 0 8 3 17 7 20 9 9 34 -13 27 -24z"/>
</g>
</svg>
